<svg version="1.2" xmlns="http://www.w3.org/2000/svg" viewBox="0 0 800 260" width="800" height="260">
	<title>lynxssp-logo</title>
	<style>
		.s0 { fill: #b4c3d4 } 
		.s1 { fill: #93a4b9 } 
		.s2 { fill: #d6e3ee } 
		.s3 { fill: #102a4c } 
		.s4 { fill: #74879e } 
		.s5 { fill: #536883 } 
		.s6 { fill: #324968 } 
		.s7 { fill: #383a3d } 
	</style>
	<g>
		<path fill-rule="evenodd" class="s0" d="m121 90.7l26.2-26.2 7.1 37.5-33.3-11.3z"/>
		<path fill-rule="evenodd" class="s1" d="m148.6 63.9l7.2 38.1 12.4-5.1-19.6-33z"/>
		<path fill-rule="evenodd" class="s0" d="m149.9 63.1l19.9 33.3 20.1-8.3-40-25z"/>
		<path fill-rule="evenodd" class="s2" d="m151.2 62.3l41 25.3 8-0.5-31.5-25.3-17.5 0.5z"/>
		<path fill-rule="evenodd" class="s0" d="m192.7 88.4l3.1 17.8 4.9-3.6-0.5-14.5-7.5 0.3z"/>
		<path fill-rule="evenodd" class="s3" d="m156.1 103.1l35.3-14.2 3 17.3-3.5 3.8-15.7-5.9-19.1-1z"/>
		<path fill-rule="evenodd" class="s2" d="m196.7 107.2l4-3.3 42.8 29.6h-17.6l-29.2-26.3z"/>
		<path fill-rule="evenodd" class="s3" d="m225.7 134.8h17.8l-8.2 12.9-8.8-7.7-0.8-5.2z"/>
		<path fill-rule="evenodd" class="s0" d="m191.9 111.3l3.9-3.3 28.6 26.3 0.8 5.4-20.4-2.3-8.1-5-4.8-21.1z"/>
		<path fill-rule="evenodd" class="s2" d="m206.7 138.9l19.4 2.4 7.9 7.7-3.4 5.9-4.9 3.6-2.5-5.9-16.5-13.7z"/>
		<path fill-rule="evenodd" class="s4" d="m196.3 133.8l-19.3 23.7 25.3 2.8 22.1-1-2.3-5.7-25.8-19.8z"/>
		<path fill-rule="evenodd" class="s3" d="m177.3 158.5l9.2 6.5 26.1 1.8 11.3-2.8 1.3-3.4-22.9 1.3-25-3.4z"/>
		<path fill-rule="evenodd" class="s1" d="m187.3 166l7.2 10.6 12.1 1.6 5-10.4-24.3-1.8z"/>
		<path fill-rule="evenodd" class="s2" d="m212.6 167.8l10.8-2.3-6.2 10.6-9.5 2.8 4.9-11.1z"/>
		<path fill-rule="evenodd" class="s2" d="m156.6 104.4l18.6 1.1 15.2 5.8 4.9 20.9-38.7-27.8z"/>
		<path fill-rule="evenodd" class="s4" d="m155.8 105.7l4.2 40.7 34.7-13.1-38.9-27.6z"/>
		<path fill-rule="evenodd" class="s5" d="m160.5 147.7l33.8-13.1-18.6 21.9-15.2-8.8z"/>
		<path fill-rule="evenodd" class="s1" d="m133.9 120.1l20.4-16.6 4.2 42.9-24.6-26.3z"/>
		<path fill-rule="evenodd" class="s4" d="m160.5 149v28.8l15.3-19.3-15.3-9.5z"/>
		<path fill-rule="evenodd" class="s5" d="m176.7 159.8l-14.9 18.4 31.7-1.3-7.8-10.9-9-6.2z"/>
		<path fill-rule="evenodd" class="s5" d="m119.7 92.2l-4.1 40 36.6-29.2-32.5-10.8z"/>
		<path fill-rule="evenodd" class="s4" d="m132.1 121.6l-16.8 13-1 7.4 43.1 5.3-25.3-25.7z"/>
		<path fill-rule="evenodd" class="s0" d="m114 143.3l43.1 5.2-30.9 49-12.2-54.2z"/>
		<path fill-rule="evenodd" class="s4" d="m158.7 149.8l-31.8 49.8 6.7 21.4 25.1-71.2z"/>
		<path fill-rule="evenodd" class="s6" d="m159.7 150.8l-24.8 70.9 12.4-11.3 11.4-28.4 1-31.2z"/>
		<path fill-rule="evenodd" class="s2" d="m144 13.8l5.9 46.5-8 7.2 2.1-53.7z"/>
		<path fill-rule="evenodd" class="s6" d="m142.2 14l-2.1 55-20.1 19.9 3.6-29.9 12.1-42.9 6.5-2.1z"/>
		<path fill-rule="evenodd" class="s1" d="m133.6 17.2l-12.6 42.8-2.3 30.2-12.4-21.2 13.7-35.7 13.6-16.1z"/>
		<path fill-rule="evenodd" class="s5" d="m117.9 35.2l-19.9 19.4 1.6 34.3 18 2.3-13.4-21.9 13.7-34.1z"/>
		<path fill-rule="evenodd" class="s2" d="m171.8 62.1l-1-34.9-8.5 33h6.4l3.1 1.9z"/>
		<path fill-rule="evenodd" class="s6" d="m150.7 60.3l18.9-33.1-8.7 33.1h-10.2z"/>
		<path fill-rule="evenodd" class="s2" d="m99.6 90.7l18.3 2-1.8 16.6-19.6 19.7 3.1-38.3z"/>
		<path fill-rule="evenodd" class="s1" d="m96.5 130.9l16.3 10.9 3.3-30.5-19.6 19.6z"/>
		<path fill-rule="evenodd" class="s0" d="m96 132.5l16.8 11.1 0.7 3.3-22.7 29.7 5.2-44.1z"/>
		<path fill-rule="evenodd" class="s4" d="m113.8 149l-23 30.2v70.7l33.8-50.9-10.8-50z"/>
		<path fill-rule="evenodd" class="s6" d="m125.4 200.9l7.5 22.1-41.6 29.2 34.1-51.3z"/>
		<path fill-rule="evenodd" class="s2" d="m96.2 56.4l1.2 26.9-57.4 55.4 28.8-56.8 27.4-25.5z"/>
		<path fill-rule="evenodd" class="s1" d="m97.6 86.8l-0.6 10.3-57 96.5v-52.6l57.6-54.2z"/>
		<path class="s6" d="m96.8 101.5l-56.8 96.7c0 0 53.4-68.8 53.4-68 0 0.7 3.4-28.7 3.4-28.7z"/>
		<path fill-rule="evenodd" class="s1" d="m94.2 132.5l-54.2 68.5 48.9-23.1 5.3-45.4z"/>
		<path fill-rule="evenodd" class="s5" d="m40 202.7l49-22.8v72.3l-49-49.5z"/>
	</g>
	<g>
		<path class="s7" d="m284 169v-65.8h11.4v55.6h30.8v10.2c0 0-42.2 0-42.2 0z"/>
		<path class="s7" d="m350.6 169v-23.2l-22.7-42.6h12.7l14.9 29h1.6l14.8-29h12.6l-22.7 42.6v23.2c0 0-11.2 0-11.2 0z"/>
		<path class="s7" d="m401.3 169v-65.8h21.7l15.5 58.2h1.5v-58.2h11.2v65.8h-21.6l-15.5-58.2h-1.6v58.2c0 0-11.2 0-11.2 0z"/>
		<path class="s7" d="m469.3 169l19.8-33.2-19.5-32.6h12.9l14 24.6h1.6l13.9-24.6h13l-19.6 32.6 19.8 33.2h-12.9l-14.2-25.2h-1.6l-14.2 25.2z"/>
		<path class="s7" d="m599.3 170.3q-7.5 0-13.3-2.7-5.7-2.6-9-7.7-3.3-5.1-3.3-12.4v-2.5h11.2v2.5q0 6.5 3.9 9.6 4 3.2 10.5 3.2c4.4 0 7.8-0.9 10.1-2.7q3.4-2.7 3.4-7 0-2.9-1.6-4.8-1.6-1.8-4.7-2.9-3-1.2-7.3-2.2l-2.9-0.6q-6.5-1.5-11.2-3.8-4.7-2.3-7.3-5.9-2.5-3.7-2.5-9.6 0-6 2.8-10.2 2.8-4.2 8-6.5 5.2-2.2 12.1-2.2 7 0 12.4 2.3 5.5 2.4 8.6 7.1 3.2 4.7 3.2 11.7v3.1h-11.2v-3.1q0-4-1.6-6.5-1.6-2.4-4.5-3.5-2.9-1.2-6.9-1.2-5.8 0-8.8 2.3-3 2.2-3 6.4 0 2.6 1.3 4.4 1.4 1.9 4.1 3.1 2.6 1.1 6.7 2l2.8 0.6q6.8 1.5 11.9 3.8 5 2.4 7.9 6.1 2.9 3.8 2.9 9.8c0 4-1.1 7.4-3.1 10.4q-3 4.5-8.5 7.1-5.6 2.5-13.1 2.5z"/>
		<path class="s7" d="m665.9 170.3q-7.5 0-13.3-2.7-5.8-2.6-9.1-7.7-3.3-5.1-3.3-12.4v-2.5h11.2v2.5q0 6.5 4 9.6 3.9 3.2 10.5 3.2c4.4 0 7.8-0.9 10.1-2.7q3.3-2.7 3.3-7 0-2.9-1.6-4.8-1.6-1.8-4.6-2.9-3.1-1.2-7.4-2.2l-2.8-0.6q-6.5-1.5-11.2-3.8-4.8-2.3-7.3-5.9-2.6-3.7-2.6-9.6 0-6 2.9-10.2 2.8-4.2 7.9-6.5 5.2-2.2 12.2-2.2 6.9 0 12.4 2.3 5.4 2.4 8.6 7.1 3.1 4.7 3.1 11.7v3.1h-11.2v-3.1q0-4-1.6-6.5-1.6-2.4-4.5-3.5-2.9-1.2-6.8-1.2-5.9 0-8.9 2.3-3 2.2-3 6.4 0 2.6 1.4 4.4 1.3 1.9 4 3.1 2.7 1.1 6.7 2l2.9 0.6q6.7 1.5 11.8 3.8 5.1 2.4 8 6.1 2.8 3.8 2.8 9.8c0 4-1 7.4-3 10.4q-3.1 4.5-8.6 7.1-5.5 2.5-13 2.5z"/>
		<path class="s7" d="m709.8 169v-65.8h26.6q6.2 0 10.9 2.4 4.7 2.5 7.4 7 2.8 4.4 2.8 10.5v1.3q0 6.1-2.8 10.6-2.8 4.5-7.5 6.9-4.8 2.5-10.8 2.5h-15.2v24.6h-11.4zm11.4-34.9h14.1q4.9 0 7.8-2.6 3-2.6 3-7.2v-1q0-4.6-2.9-7.2-2.9-2.6-7.9-2.7h-14.1c0 0 0 20.7 0 20.7z"/>
	</g>
</svg>